<?xml version="1.0" encoding="UTF-8"?>
<svg version="1.1" xmlns="http://www.w3.org/2000/svg" width="512" height="512">
<path d="M0 0 C2.10084701 -0.01718633 4.2001085 -0.06106997 6.30053711 -0.10522461 C7.64232244 -0.1153545 8.98412112 -0.12386968 10.32592773 -0.13061523 C12.15281128 -0.15248901 12.15281128 -0.15248901 14.01660156 -0.17480469 C17.94286393 0.38608994 19.55292577 1.48584143 22.30639648 4.29516602 C23.25114881 6.84775769 23.89673404 9.03836874 24.43139648 11.67016602 C24.58898437 12.36754883 24.74657227 13.06493164 24.90893555 13.78344727 C25.39384318 15.95034763 25.85137284 18.12181653 26.30639648 20.29516602 C26.60971106 21.68348751 26.91435633 23.07151908 27.22045898 24.45922852 C27.93418972 27.73438542 28.62930002 31.01227406 29.30639648 34.29516602 C33.74560035 36.6308011 37.27083885 37.78247805 42.30639648 37.29516602 C48.37547231 33.25302092 52.87538063 26.99676232 57.30639648 21.29516602 C62.09906152 15.21154743 62.09906152 15.21154743 65.30639648 14.29516602 C71.58179748 14.63049279 75.98358245 16.93704482 81.36889648 20.04516602 C82.14555664 20.47571289 82.9222168 20.90625977 83.72241211 21.34985352 C95.44370532 27.97967897 95.44370532 27.97967897 97.43139648 33.31469727 C97.2446783 39.2605044 95.27751279 44.40749882 93.30639648 49.98266602 C92.52615645 52.21246963 91.75489885 54.44544249 90.99389648 56.68188477 C90.64713867 57.66374756 90.30038086 58.64561035 89.94311523 59.65722656 C89.27994378 62.40476016 89.29807406 63.69379441 90.30639648 66.29516602 C91.58535212 68.34315072 91.58535212 68.34315072 93.30639648 70.17016602 C94.11077148 71.12536133 94.11077148 71.12536133 94.93139648 72.09985352 C99.94129755 74.62128399 106.06195684 71.40744114 111.09545898 69.75219727 C113.52853886 68.93132808 115.95594417 68.09898021 118.37670898 67.24243164 C123.37040873 65.57651395 127.07901088 64.78764283 132.30639648 66.29516602 C137.44093062 70.38204773 140.54632871 77.22811807 143.68139648 82.92016602 C144.0274292 83.54101074 144.37346191 84.16185547 144.72998047 84.80151367 C146.92547642 88.95717567 148.02738549 92.60322597 148.30639648 97.29516602 C145.40697472 103.64628036 139.48957492 107.8060959 134.30639648 112.29516602 C132.59621861 113.81392486 130.88775287 115.3346149 129.18139648 116.85766602 C127.90264648 117.99204102 126.62389648 119.12641602 125.30639648 120.29516602 C126.29639648 124.58516602 127.28639648 128.87516602 128.30639648 133.29516602 C131.25125977 133.87524414 131.25125977 133.87524414 134.25561523 134.46704102 C136.16882883 134.85664088 138.08202283 135.24634459 139.99462891 135.63891602 C141.96570686 136.0394379 143.93976035 136.42522513 145.91381836 136.81079102 C147.16098633 137.06860352 148.4081543 137.32641602 149.69311523 137.59204102 C150.83997803 137.82246094 151.98684082 138.05288086 153.16845703 138.2902832 C156.6384252 139.40149374 158.66407 140.81342622 161.30639648 143.29516602 C163.44707683 147.57652671 162.57446373 153.23653065 162.6015625 157.98876953 C162.61874883 160.08961654 162.66263247 162.18887803 162.70678711 164.28930664 C162.716917 165.63109197 162.72543218 166.97289065 162.73217773 168.31469727 C162.75405151 170.14158081 162.75405151 170.14158081 162.77636719 172.00537109 C162.21547256 175.93163346 161.11572107 177.54169531 158.30639648 180.29516602 C155.75380481 181.23991834 153.56319376 181.88550357 150.93139648 182.42016602 C149.88532227 182.65654785 149.88532227 182.65654785 148.81811523 182.89770508 C146.65121487 183.38261271 144.47974597 183.84014237 142.30639648 184.29516602 C140.91807499 184.5984806 139.53004342 184.90312586 138.14233398 185.20922852 C134.86717708 185.92295925 131.58928844 186.61806955 128.30639648 187.29516602 C125.9707614 191.73436988 124.81908445 195.25960838 125.30639648 200.29516602 C129.34854158 206.36424184 135.60480018 210.86415016 141.30639648 215.29516602 C147.39001507 220.08783105 147.39001507 220.08783105 148.30639648 223.29516602 C147.97106971 229.57056701 145.66451768 233.97235198 142.55639648 239.35766602 C142.12584961 240.13432617 141.69530273 240.91098633 141.25170898 241.71118164 C134.62188353 253.43247485 134.62188353 253.43247485 129.28686523 255.42016602 C123.3410581 255.23344783 118.19406368 253.26628232 112.61889648 251.29516602 C110.38909287 250.51492598 108.15612001 249.74366839 105.91967773 248.98266602 C104.93781494 248.6359082 103.95595215 248.28915039 102.94433594 247.93188477 C100.19680234 247.26871331 98.90776809 247.28684359 96.30639648 248.29516602 C94.25841178 249.57412165 94.25841178 249.57412165 92.43139648 251.29516602 C91.79459961 251.83141602 91.15780273 252.36766602 90.50170898 252.92016602 C87.98027851 257.93006708 91.19412136 264.05072637 92.84936523 269.08422852 C93.67023442 271.51730839 94.50258229 273.9447137 95.35913086 276.36547852 C97.02504855 281.35917826 97.81391967 285.06778041 96.30639648 290.29516602 C92.21951477 295.42970015 85.37344443 298.53509824 79.68139648 301.67016602 C79.06055176 302.01619873 78.43970703 302.36223145 77.80004883 302.71875 C73.64438683 304.91424595 69.99833653 306.01615502 65.30639648 306.29516602 C58.95528214 303.39574425 54.7954666 297.47834445 50.30639648 292.29516602 C48.78763764 290.58498814 47.2669476 288.8765224 45.74389648 287.17016602 C44.60952148 285.89141602 43.47514648 284.61266602 42.30639648 283.29516602 C38.01639648 284.28516602 33.72639648 285.27516602 29.30639648 286.29516602 C28.72631836 289.2400293 28.72631836 289.2400293 28.13452148 292.24438477 C27.74492162 294.15759836 27.35521791 296.07079236 26.96264648 297.98339844 C26.5621246 299.95447639 26.17633737 301.92852988 25.79077148 303.90258789 C25.53295898 305.14975586 25.27514648 306.39692383 25.00952148 307.68188477 C24.77910156 308.82874756 24.54868164 309.97561035 24.3112793 311.15722656 C23.20006876 314.62719473 21.78813628 316.65283953 19.30639648 319.29516602 C15.02503579 321.43584636 9.36503185 320.56323326 4.61279297 320.59033203 C2.51194596 320.60751836 0.41268447 320.65140201 -1.68774414 320.69555664 C-3.02952947 320.70568654 -4.37132815 320.71420172 -5.71313477 320.72094727 C-7.54001831 320.74282104 -7.54001831 320.74282104 -9.40380859 320.76513672 C-13.33007096 320.2042421 -14.94013281 319.1044906 -17.69360352 316.29516602 C-18.63835584 313.74257434 -19.28394107 311.55196329 -19.81860352 308.92016602 C-20.05498535 307.8740918 -20.05498535 307.8740918 -20.29614258 306.80688477 C-20.78105021 304.6399844 -21.23857987 302.4685155 -21.69360352 300.29516602 C-21.9969181 298.90684452 -22.30156336 297.51881295 -22.60766602 296.13110352 C-23.32139675 292.85594661 -24.01650705 289.57805797 -24.69360352 286.29516602 C-29.13280738 283.95953093 -32.65804588 282.80785399 -37.69360352 283.29516602 C-43.76267934 287.33731111 -48.26258766 293.59356971 -52.69360352 299.29516602 C-57.48626855 305.3787846 -57.48626855 305.3787846 -60.69360352 306.29516602 C-66.96900451 305.95983924 -71.37078948 303.65328721 -76.75610352 300.54516602 C-77.92109375 299.8993457 -77.92109375 299.8993457 -79.10961914 299.24047852 C-90.83091235 292.61065306 -90.83091235 292.61065306 -92.81860352 287.27563477 C-92.63188533 281.32982763 -90.66471982 276.18283321 -88.69360352 270.60766602 C-87.91336348 268.3778624 -87.14210589 266.14488955 -86.38110352 263.90844727 C-85.8609668 262.43565308 -85.8609668 262.43565308 -85.33032227 260.93310547 C-84.66715081 258.18557187 -84.68528109 256.89653762 -85.69360352 254.29516602 C-86.97255915 252.24718131 -86.97255915 252.24718131 -88.69360352 250.42016602 C-89.22985352 249.78336914 -89.76610352 249.14657227 -90.31860352 248.49047852 C-95.32850458 245.96904804 -101.44916387 249.18289089 -106.48266602 250.83813477 C-108.91574589 251.65900395 -111.3431512 252.49135182 -113.76391602 253.34790039 C-118.76365812 255.01583384 -122.45146893 255.76455222 -127.69360352 254.29516602 C-130.40681282 252.21924541 -131.93581914 249.19897687 -133.69360352 246.29516602 C-134.06340332 245.6905957 -134.43320313 245.08602539 -134.81420898 244.46313477 C-136.06582486 242.39799363 -137.29053257 240.31921204 -138.50610352 238.23266602 C-138.90361816 237.56033936 -139.30113281 236.8880127 -139.71069336 236.1953125 C-142.12946111 231.90930634 -143.44747016 228.31013308 -143.69360352 223.29516602 C-140.79418175 216.94405167 -134.87678195 212.78423613 -129.69360352 208.29516602 C-127.98342564 206.77640717 -126.2749599 205.25571713 -124.56860352 203.73266602 C-122.65047852 202.03110352 -122.65047852 202.03110352 -120.69360352 200.29516602 C-121.68360352 196.00516602 -122.67360352 191.71516602 -123.69360352 187.29516602 C-125.6568457 186.90844727 -127.62008789 186.52172852 -129.64282227 186.12329102 C-131.55603586 185.73369116 -133.46922986 185.34398744 -135.38183594 184.95141602 C-137.35291389 184.55089413 -139.32696738 184.16510691 -141.30102539 183.77954102 C-142.54819336 183.52172852 -143.79536133 183.26391602 -145.08032227 182.99829102 C-146.22718506 182.76787109 -147.37404785 182.53745117 -148.55566406 182.30004883 C-152.02563223 181.18883829 -154.05127703 179.77690581 -156.69360352 177.29516602 C-158.83428386 173.01380532 -157.96167076 167.35380138 -157.98876953 162.6015625 C-158.00595586 160.50071549 -158.04983951 158.401454 -158.09399414 156.30102539 C-158.10412404 154.95924006 -158.11263922 153.61744138 -158.11938477 152.27563477 C-158.13396729 151.0577124 -158.1485498 149.83979004 -158.16357422 148.58496094 C-157.6026796 144.65869857 -156.5029281 143.04863673 -153.69360352 140.29516602 C-151.14101184 139.35041369 -148.95040079 138.70482846 -146.31860352 138.17016602 C-145.6212207 138.01257813 -144.92383789 137.85499023 -144.20532227 137.69262695 C-142.0384219 137.20771932 -139.866953 136.75018966 -137.69360352 136.29516602 C-136.30528202 135.99185144 -134.91725045 135.68720617 -133.52954102 135.38110352 C-130.25438411 134.66737278 -126.97649547 133.97226248 -123.69360352 133.29516602 C-121.35796843 128.85596215 -120.20629149 125.33072365 -120.69360352 120.29516602 C-124.73574861 114.22609019 -130.99200721 109.72618187 -136.69360352 105.29516602 C-142.7772221 100.50250098 -142.7772221 100.50250098 -143.69360352 97.29516602 C-143.35827674 91.01976502 -141.05172471 86.61798005 -137.94360352 81.23266602 C-137.2977832 80.06767578 -137.2977832 80.06767578 -136.63891602 78.87915039 C-130.00909056 67.15785718 -130.00909056 67.15785718 -124.67407227 65.17016602 C-118.72826513 65.3568842 -113.58127071 67.32404971 -108.00610352 69.29516602 C-105.7762999 70.07540605 -103.54332705 70.84666365 -101.30688477 71.60766602 C-100.32502197 71.95442383 -99.34315918 72.30118164 -98.33154297 72.65844727 C-95.58400937 73.32161872 -94.29497512 73.30348844 -91.69360352 72.29516602 C-89.64561881 71.01621038 -89.64561881 71.01621038 -87.81860352 69.29516602 C-87.18180664 68.75891602 -86.54500977 68.22266602 -85.88891602 67.67016602 C-83.36748554 62.66026495 -86.58132839 56.53960566 -88.23657227 51.50610352 C-89.05744145 49.07302364 -89.88978932 46.64561833 -90.74633789 44.22485352 C-92.41225558 39.23115377 -93.2011267 35.52255162 -91.69360352 30.29516602 C-87.6067218 25.16063188 -80.76065146 22.05523379 -75.06860352 18.92016602 C-74.44775879 18.5741333 -73.82691406 18.22810059 -73.18725586 17.87158203 C-69.03159386 15.67608608 -65.38554356 14.57417701 -60.69360352 14.29516602 C-54.34248917 17.19458778 -50.18267363 23.11198758 -45.69360352 28.29516602 C-44.17484467 30.00534389 -42.65415463 31.71380963 -41.13110352 33.42016602 C-39.99672852 34.69891602 -38.86235352 35.97766602 -37.69360352 37.29516602 C-33.40360352 36.30516602 -29.11360352 35.31516602 -24.69360352 34.29516602 C-24.30688477 32.33192383 -23.92016602 30.36868164 -23.52172852 28.34594727 C-23.13212866 26.43273367 -22.74242494 24.51953967 -22.34985352 22.60693359 C-21.94933163 20.63585564 -21.56354441 18.66180215 -21.17797852 16.68774414 C-20.92016602 15.44057617 -20.66235352 14.1934082 -20.39672852 12.90844727 C-20.16630859 11.76158447 -19.93588867 10.61472168 -19.69848633 9.43310547 C-18.58727579 5.9631373 -17.17534331 3.9374925 -14.69360352 1.29516602 C-10.41224282 -0.84551433 -4.75223888 0.02709877 0 0 Z M-2.69360352 17.29516602 C-4.06334024 21.00225163 -5.03351761 24.69306325 -5.84204102 28.55297852 C-6.04313477 29.50817383 -6.24422852 30.46336914 -6.45141602 31.44750977 C-6.86411078 33.43523581 -7.26771065 35.4248711 -7.66235352 37.41625977 C-8.47793222 41.23089688 -9.18586126 44.48100574 -11.26000977 47.80688477 C-15.0191206 50.10579524 -18.99206387 50.98783006 -23.25610352 51.98266602 C-24.96585617 52.40276207 -26.67549645 52.82331583 -28.38500977 53.24438477 C-29.13983643 53.42316162 -29.89466309 53.60193848 -30.67236328 53.78613281 C-32.3671423 54.21294937 -34.03559161 54.74249538 -35.69360352 55.29516602 C-42.34969521 56.07171005 -42.34969521 56.07171005 -45.52563477 54.23657227 C-50.08561277 50.43830616 -53.88524891 45.82519513 -57.69360352 41.29516602 C-58.83855263 39.96107332 -59.9843269 38.62768814 -61.13110352 37.29516602 C-61.97672852 36.30516602 -62.82235352 35.31516602 -63.69360352 34.29516602 C-67.67484483 34.86391477 -70.3063268 36.17171355 -73.69360352 38.29516602 C-72.42711665 43.73179254 -71.12714541 49.12619215 -69.31079102 54.40844727 C-69.07513428 55.10518555 -68.83947754 55.80192383 -68.59667969 56.51977539 C-68.12882616 57.88486695 -67.64519332 59.24467823 -67.14404297 60.59790039 C-65.47457452 65.51269648 -65.58554916 68.56302316 -67.69360352 73.29516602 C-69.60691954 75.37805215 -71.35067716 77.08276233 -73.50610352 78.85766602 C-74.55775563 79.75072535 -75.60596001 80.64786096 -76.65063477 81.54907227 C-77.16706543 81.99138184 -77.68349609 82.43369141 -78.21557617 82.8894043 C-79.7286848 84.32853206 -80.90075023 85.83511753 -82.14282227 87.51000977 C-84.48436189 90.06669851 -86.05400828 91.56209314 -89.47631836 92.30200195 C-94.84125397 92.28546174 -99.98315502 90.12669827 -105.00610352 88.42016602 C-107.3557561 87.65007977 -109.70598738 86.88175625 -112.05688477 86.11547852 C-113.09111572 85.76759277 -114.12534668 85.41970703 -115.19091797 85.0612793 C-117.57611735 84.19759633 -117.57611735 84.19759633 -119.69360352 84.29516602 C-120.37422852 85.36766602 -121.05485352 86.44016602 -121.75610352 87.54516602 C-122.13895508 88.14844727 -122.52180664 88.75172852 -122.91625977 89.37329102 C-123.83390694 91.25462781 -123.83390694 91.25462781 -123.59594727 93.26391602 C-122.33914187 96.09308833 -120.5374906 97.53405303 -118.19360352 99.54516602 C-117.29770508 100.32504883 -116.40180664 101.10493164 -115.47875977 101.90844727 C-114.5596582 102.69606445 -113.64055664 103.48368164 -112.69360352 104.29516602 C-111.0024795 105.770188 -109.31469475 107.24905191 -107.63110352 108.73266602 C-106.89762695 109.37075195 -106.16415039 110.00883789 -105.40844727 110.66625977 C-102.90769482 113.04168976 -102.71189101 114.10131855 -102.38110352 117.60766602 C-102.4362824 122.68412336 -104.02938643 127.18579108 -105.63110352 131.96313477 C-106.8987146 135.93840041 -107.73397835 139.95286713 -108.49438477 144.05297852 C-109.97025932 146.81243127 -111.55835665 147.56760712 -114.44921875 148.63354492 C-119.09523932 150.00314307 -123.82379811 150.96173899 -128.56860352 151.92016602 C-130.65000213 152.3465989 -132.73077248 152.77611412 -134.81079102 153.20922852 C-135.7245752 153.39437012 -136.63835937 153.57951172 -137.57983398 153.77026367 C-139.66568218 154.09529559 -139.66568218 154.09529559 -140.69360352 155.29516602 C-140.76565863 156.98125567 -140.77746419 158.67017261 -140.75610352 160.35766602 C-140.74708008 161.27676758 -140.73805664 162.19586914 -140.72875977 163.14282227 C-140.7171582 163.8530957 -140.70555664 164.56336914 -140.69360352 165.29516602 C-136.9865179 166.66490274 -133.29570628 167.63508011 -129.43579102 168.44360352 C-128.4805957 168.64469727 -127.52540039 168.84579102 -126.54125977 169.05297852 C-124.55353372 169.46567328 -122.56389843 169.86927315 -120.57250977 170.26391602 C-116.75787266 171.07949472 -113.50776379 171.78742376 -110.18188477 173.86157227 C-107.88297429 177.6206831 -107.00093947 181.59362637 -106.00610352 185.85766602 C-105.58600746 187.56741867 -105.1654537 189.27705895 -104.74438477 190.98657227 C-104.56560791 191.74139893 -104.38683105 192.49622559 -104.20263672 193.27392578 C-103.77582016 194.9687048 -103.24627415 196.63715411 -102.69360352 198.29516602 C-101.91705948 204.95125771 -101.91705948 204.95125771 -103.75219727 208.12719727 C-107.55046337 212.68717527 -112.1635744 216.48681141 -116.69360352 220.29516602 C-118.02769621 221.44011513 -119.36108139 222.5858894 -120.69360352 223.73266602 C-121.68360352 224.57829102 -122.67360352 225.42391602 -123.69360352 226.29516602 C-123.12485476 230.27640733 -121.81705598 232.9078893 -119.69360352 236.29516602 C-114.25697699 235.02867915 -108.86257739 233.72870791 -103.58032227 231.91235352 C-102.88358398 231.67669678 -102.1868457 231.44104004 -101.46899414 231.19824219 C-100.10390258 230.73038866 -98.7440913 230.24675582 -97.39086914 229.74560547 C-92.47607305 228.07613702 -89.42574637 228.18711166 -84.69360352 230.29516602 C-82.61071738 232.20848204 -80.9060072 233.95223966 -79.13110352 236.10766602 C-78.23804418 237.15931813 -77.34090857 238.20752251 -76.43969727 239.25219727 C-75.9973877 239.76862793 -75.55507812 240.28505859 -75.09936523 240.81713867 C-73.66023747 242.3302473 -72.153652 243.50231273 -70.47875977 244.74438477 C-67.92207102 247.08592439 -66.4266764 248.65557078 -65.68676758 252.07788086 C-65.70330779 257.44281647 -67.86207126 262.58471752 -69.56860352 267.60766602 C-70.33868976 269.9573186 -71.10701328 272.30754988 -71.87329102 274.65844727 C-72.39511963 276.2097937 -72.39511963 276.2097937 -72.92749023 277.79248047 C-73.7911732 280.17767985 -73.7911732 280.17767985 -73.69360352 282.29516602 C-72.62110352 282.97579102 -71.54860352 283.65641602 -70.44360352 284.35766602 C-69.84032227 284.74051758 -69.23704102 285.12336914 -68.61547852 285.51782227 C-66.73414172 286.43546944 -66.73414172 286.43546944 -64.72485352 286.19750977 C-61.8956812 284.94070437 -60.4547165 283.1390531 -58.44360352 280.79516602 C-57.6637207 279.89926758 -56.88383789 279.00336914 -56.08032227 278.08032227 C-55.29270508 277.1612207 -54.50508789 276.24211914 -53.69360352 275.29516602 C-52.21858153 273.604042 -50.73971762 271.91625725 -49.25610352 270.23266602 C-48.61801758 269.49918945 -47.97993164 268.76571289 -47.32250977 268.01000977 C-44.94707977 265.50925732 -43.88745099 265.31345351 -40.38110352 264.98266602 C-35.30464617 265.0378449 -30.80297845 266.63094893 -26.02563477 268.23266602 C-22.05036912 269.5002771 -18.0359024 270.33554085 -13.93579102 271.09594727 C-11.17633826 272.57182182 -10.42116241 274.15991915 -9.35522461 277.05078125 C-7.98562646 281.69680182 -7.02703054 286.42536061 -6.06860352 291.17016602 C-5.64217063 293.25156463 -5.21265542 295.33233498 -4.77954102 297.41235352 C-4.59439941 298.3261377 -4.40925781 299.23992187 -4.21850586 300.18139648 C-3.89347394 302.26724468 -3.89347394 302.26724468 -2.69360352 303.29516602 C-1.00751386 303.36722113 0.68140308 303.37902669 2.36889648 303.35766602 C3.74754883 303.34413086 3.74754883 303.34413086 5.15405273 303.33032227 C5.86432617 303.3187207 6.57459961 303.30711914 7.30639648 303.29516602 C8.6761332 299.5880804 9.64631058 295.89726878 10.45483398 292.03735352 C10.65592773 291.0821582 10.85702148 290.12696289 11.06420898 289.14282227 C11.47690375 287.15509622 11.88050362 285.16546093 12.27514648 283.17407227 C13.09072519 279.35943516 13.79865423 276.10932629 15.87280273 272.78344727 C19.63191357 270.48453679 23.60485684 269.60250197 27.86889648 268.60766602 C29.57864914 268.18756996 31.28828942 267.7670162 32.99780273 267.34594727 C33.75262939 267.16717041 34.50745605 266.98839355 35.28515625 266.80419922 C36.97993527 266.37738266 38.64838458 265.84783665 40.30639648 265.29516602 C46.96248818 264.51862198 46.96248818 264.51862198 50.13842773 266.35375977 C54.69840574 270.15202587 58.49804188 274.7651369 62.30639648 279.29516602 C63.4513456 280.62925871 64.59711987 281.96264389 65.74389648 283.29516602 C66.58952148 284.28516602 67.43514648 285.27516602 68.30639648 286.29516602 C72.26460507 285.72970765 74.97230179 284.48614253 78.30639648 282.29516602 C77.34456223 277.58972198 76.2917348 273.04910252 74.72827148 268.50610352 C74.45499023 267.70946289 74.18170898 266.91282227 73.90014648 266.09204102 C73.33351393 264.46559572 72.75519365 262.84317928 72.16577148 261.22485352 C70.38022568 255.93689094 69.82421792 252.56900597 72.30639648 247.29516602 C74.21971251 245.21227988 75.96347013 243.5075697 78.11889648 241.73266602 C79.1705486 240.83960668 80.21875298 239.94247107 81.26342773 239.04125977 C81.7798584 238.5989502 82.29628906 238.15664063 82.82836914 237.70092773 C84.34147777 236.26179997 85.51354319 234.7552145 86.75561523 233.08032227 C89.09715486 230.52363352 90.66680125 229.0282389 94.08911133 228.28833008 C99.45404694 228.30487029 104.59594799 230.46363376 109.61889648 232.17016602 C111.96854907 232.94025226 114.31878035 233.70857578 116.66967773 234.47485352 C117.70390869 234.82273926 118.73813965 235.170625 119.80371094 235.52905273 C122.18891032 236.3927357 122.18891032 236.3927357 124.30639648 236.29516602 C124.98702148 235.22266602 125.66764648 234.15016602 126.36889648 233.04516602 C126.75174805 232.44188477 127.13459961 231.83860352 127.52905273 231.21704102 C128.44669991 229.33570422 128.44669991 229.33570422 128.20874023 227.32641602 C126.95193484 224.4972437 125.15028356 223.056279 122.80639648 221.04516602 C121.91049805 220.2652832 121.01459961 219.48540039 120.09155273 218.68188477 C119.17245117 217.89426758 118.25334961 217.10665039 117.30639648 216.29516602 C115.61527247 214.82014403 113.92748772 213.34128012 112.24389648 211.85766602 C111.51041992 211.21958008 110.77694336 210.58149414 110.02124023 209.92407227 C107.52048779 207.54864227 107.32468398 206.48901349 106.99389648 202.98266602 C107.04907537 197.90620867 108.64217939 193.40454095 110.24389648 188.62719727 C111.51150757 184.65193162 112.34677132 180.6374649 113.10717773 176.53735352 C114.58305229 173.77790076 116.17114962 173.02272491 119.06201172 171.95678711 C123.70803229 170.58718896 128.43659108 169.62859304 133.18139648 168.67016602 C135.2627951 168.24373313 137.34356544 167.81421792 139.42358398 167.38110352 C140.33736816 167.19596191 141.25115234 167.01082031 142.19262695 166.82006836 C144.27847515 166.49503644 144.27847515 166.49503644 145.30639648 165.29516602 C145.3784516 163.60907636 145.39025716 161.92015942 145.36889648 160.23266602 C145.35536133 158.85401367 145.35536133 158.85401367 145.34155273 157.44750977 C145.32995117 156.73723633 145.31834961 156.02696289 145.30639648 155.29516602 C141.59931087 153.9254293 137.90849925 152.95525192 134.04858398 152.14672852 C133.09338867 151.94563477 132.13819336 151.74454102 131.15405273 151.53735352 C129.16632669 151.12465875 127.1766914 150.72105888 125.18530273 150.32641602 C121.37066562 149.51083731 118.12055676 148.80290827 114.79467773 146.72875977 C112.49576726 142.96964893 111.61373244 138.99670566 110.61889648 134.73266602 C110.19880043 133.02291336 109.77824667 131.31327308 109.35717773 129.60375977 C109.08901245 128.47151978 109.08901245 128.47151978 108.81542969 127.31640625 C108.38861313 125.62162723 107.85906712 123.95317792 107.30639648 122.29516602 C106.52985245 115.63907432 106.52985245 115.63907432 108.36499023 112.46313477 C112.16325634 107.90315676 116.77636737 104.10352062 121.30639648 100.29516602 C122.64048918 99.1502169 123.97387436 98.00444263 125.30639648 96.85766602 C126.79139648 95.58922852 126.79139648 95.58922852 128.30639648 94.29516602 C127.73764773 90.3139247 126.42984895 87.68244273 124.30639648 84.29516602 C118.86976996 85.56165288 113.47537035 86.86162412 108.19311523 88.67797852 C107.49637695 88.91363525 106.79963867 89.14929199 106.08178711 89.39208984 C104.71669555 89.85994337 103.35688427 90.34357621 102.00366211 90.84472656 C97.08886602 92.51419501 94.03853934 92.40322037 89.30639648 90.29516602 C87.22351035 88.38184999 85.51880017 86.63809237 83.74389648 84.48266602 C82.85083715 83.4310139 81.95370154 82.38280952 81.05249023 81.33813477 C80.61018066 80.8217041 80.16787109 80.30527344 79.7121582 79.77319336 C78.27303044 78.26008473 76.76644497 77.08801931 75.09155273 75.84594727 C72.53486399 73.50440764 71.03946936 71.93476125 70.29956055 68.51245117 C70.31610076 63.14751556 72.47486423 58.00561451 74.18139648 52.98266602 C74.95148273 50.63301343 75.71980625 48.28278215 76.48608398 45.93188477 C76.83396973 44.89765381 77.18185547 43.86342285 77.5402832 42.79785156 C78.40396617 40.41265218 78.40396617 40.41265218 78.30639648 38.29516602 C77.23389648 37.61454102 76.16139648 36.93391602 75.05639648 36.23266602 C74.45311523 35.84981445 73.84983398 35.46696289 73.22827148 35.07250977 C71.34693469 34.15486259 71.34693469 34.15486259 69.33764648 34.39282227 C66.50847417 35.64962766 65.06750947 37.45127894 63.05639648 39.79516602 C61.88657227 41.13901367 61.88657227 41.13901367 60.69311523 42.51000977 C59.90549805 43.42911133 59.11788086 44.34821289 58.30639648 45.29516602 C56.8313745 46.98629003 55.35251059 48.67407478 53.86889648 50.35766602 C53.23081055 51.09114258 52.59272461 51.82461914 51.93530273 52.58032227 C49.55987274 55.08107471 48.50024395 55.27687852 44.99389648 55.60766602 C39.91743914 55.55248713 35.41577142 53.95938311 30.63842773 52.35766602 C26.66316209 51.09005493 22.64869537 50.25479118 18.54858398 49.49438477 C15.78913123 48.01851021 15.03395538 46.43041288 13.96801758 43.53955078 C12.59841943 38.89353021 11.63982351 34.16497142 10.68139648 29.42016602 C10.2549636 27.3387674 9.82544838 25.25799706 9.39233398 23.17797852 C9.20719238 22.26419434 9.02205078 21.35041016 8.83129883 20.40893555 C8.50626691 18.32308735 8.50626691 18.32308735 7.30639648 17.29516602 C5.62030683 17.2231109 3.93138989 17.21130534 2.24389648 17.23266602 C1.32479492 17.24168945 0.40569336 17.25071289 -0.54125977 17.26000977 C-1.2515332 17.27161133 -1.96180664 17.28321289 -2.69360352 17.29516602 Z " fill="#9A93B2" transform="translate(173.693603515625,175.704833984375)"/>
<path d="M0 0 C1.134375 -0.00515625 2.26875 -0.0103125 3.4375 -0.015625 C4.613125 -0.00015625 5.78875 0.0153125 7 0.03125 C8.7634375 0.00804687 8.7634375 0.00804687 10.5625 -0.015625 C11.696875 -0.01046875 12.83125 -0.0053125 14 0 C15.546875 0.00676758 15.546875 0.00676758 17.125 0.01367188 C20.78071527 0.67179996 22.39944067 1.90700051 25 4.53125 C26.21020508 6.86547852 26.21020508 6.86547852 27.01953125 9.41015625 C27.31923828 10.33119141 27.61894531 11.25222656 27.92773438 12.20117188 C28.21970703 13.15572266 28.51167969 14.11027344 28.8125 15.09375 C29.27946289 16.53137695 29.27946289 16.53137695 29.75585938 17.99804688 C32 25.03626374 32 25.03626374 32 28.53125 C34.99644751 29.53329303 37.15552819 29.87000605 40.13134766 28.67626953 C43.3938712 26.92038061 46.57013123 25.03845688 49.74804688 23.13476562 C55.12676163 20.07543229 59.76661756 18.03948134 66 19.53125 C68.53783741 21.19604726 70.16034468 22.46262914 72.1875 24.59375 C72.94994019 25.34712646 72.94994019 25.34712646 73.7277832 26.11572266 C75.17651832 27.563296 76.58938878 29.04650154 78 30.53125 C78.680625 31.22863281 79.36125 31.92601563 80.0625 32.64453125 C83.0240902 35.8552937 84.56106404 38.19430069 85 42.53125 C84.46875 44.75 84.46875 44.75 83.5 47.03125 C83.13519531 47.89234375 82.77039063 48.7534375 82.39453125 49.640625 C80.26851543 54.04749253 77.80114701 58.25386573 75.29296875 62.453125 C73.79673323 66.01516002 74.01404323 67.85181356 75 71.53125 C76.175625 71.758125 77.35125 71.985 78.5625 72.21875 C83.03883552 73.23091504 87.43321676 74.47618809 91.8125 75.84375 C92.78135132 76.12641724 92.78135132 76.12641724 93.76977539 76.41479492 C98.31331821 77.88039664 100.40340819 79.57187336 103 83.53125 C103.51757812 86.40625 103.51757812 86.40625 103.53125 89.53125 C103.53898437 91.2328125 103.53898437 91.2328125 103.546875 92.96875 C103.53140625 94.144375 103.5159375 95.32 103.5 96.53125 C103.52320313 98.2946875 103.52320313 98.2946875 103.546875 100.09375 C103.54171875 101.228125 103.5365625 102.3625 103.53125 103.53125 C103.52673828 104.5625 103.52222656 105.59375 103.51757812 106.65625 C102.85945004 110.31196527 101.62424949 111.93069067 99 114.53125 C96.66577148 115.74145508 96.66577148 115.74145508 94.12109375 116.55078125 C93.20005859 116.85048828 92.27902344 117.15019531 91.33007812 117.45898438 C90.37552734 117.75095703 89.42097656 118.04292969 88.4375 118.34375 C87.47908203 118.65505859 86.52066406 118.96636719 85.53320312 119.28710938 C78.49498626 121.53125 78.49498626 121.53125 75 121.53125 C73.99795697 124.52769751 73.66124395 126.68677819 74.85498047 129.66259766 C76.61086939 132.9251212 78.49279312 136.10138123 80.39648438 139.27929688 C83.45581771 144.65801163 85.49176866 149.29786756 84 155.53125 C82.33515036 158.06916727 81.06957577 159.69234562 78.9375 161.71875 C78.43234863 162.22631836 77.92719727 162.73388672 77.40673828 163.25683594 C75.95623891 164.70038181 74.47877427 166.11668302 73 167.53125 C72.02353516 168.56958984 72.02353516 168.56958984 71.02734375 169.62890625 C68.16149879 172.49475121 66.00329524 173.87478464 61.89453125 173.98828125 C56.1866879 173.8432649 52.11295573 171.34440391 47.3125 168.46875 C41.27892792 164.64005691 41.27892792 164.64005691 34.41796875 163.72265625 C33.62003906 163.98949219 32.82210937 164.25632813 32 164.53125 C31.773125 165.706875 31.54625 166.8825 31.3125 168.09375 C30.30033496 172.57008552 29.05506191 176.96446676 27.6875 181.34375 C27.49905518 181.98965088 27.31061035 182.63555176 27.11645508 183.30102539 C25.65085336 187.84456821 23.95937664 189.93465819 20 192.53125 C17.125 193.04882812 17.125 193.04882812 14 193.0625 C12.865625 193.06765625 11.73125 193.0728125 10.5625 193.078125 C9.386875 193.06265625 8.21125 193.0471875 7 193.03125 C5.2365625 193.05445313 5.2365625 193.05445313 3.4375 193.078125 C2.303125 193.07296875 1.16875 193.0678125 0 193.0625 C-1.546875 193.05573242 -1.546875 193.05573242 -3.125 193.04882812 C-6.78071527 192.39070004 -8.39944067 191.15549949 -11 188.53125 C-12.21020508 186.19702148 -12.21020508 186.19702148 -13.01953125 183.65234375 C-13.31923828 182.73130859 -13.61894531 181.81027344 -13.92773438 180.86132812 C-14.21970703 179.90677734 -14.51167969 178.95222656 -14.8125 177.96875 C-15.12380859 177.01033203 -15.43511719 176.05191406 -15.75585938 175.06445312 C-18 168.02623626 -18 168.02623626 -18 164.53125 C-20.99644751 163.52920697 -23.15552819 163.19249395 -26.13134766 164.38623047 C-29.3938712 166.14211939 -32.57013123 168.02404312 -35.74804688 169.92773438 C-41.12676163 172.98706771 -45.76661756 175.02301866 -52 173.53125 C-54.53783741 171.86645274 -56.16034468 170.59987086 -58.1875 168.46875 C-58.69579346 167.96649902 -59.20408691 167.46424805 -59.7277832 166.94677734 C-61.17651832 165.499204 -62.58938878 164.01599846 -64 162.53125 C-64.680625 161.83386719 -65.36125 161.13648438 -66.0625 160.41796875 C-69.0240902 157.2072063 -70.56106404 154.86819931 -71 150.53125 C-70.46875 148.3125 -70.46875 148.3125 -69.5 146.03125 C-69.13519531 145.17015625 -68.77039063 144.3090625 -68.39453125 143.421875 C-66.26851543 139.01500747 -63.80114701 134.80863427 -61.29296875 130.609375 C-59.79673323 127.04733998 -60.01404323 125.21068644 -61 121.53125 C-62.175625 121.304375 -63.35125 121.0775 -64.5625 120.84375 C-69.03883552 119.83158496 -73.43321676 118.58631191 -77.8125 117.21875 C-78.45840088 117.03030518 -79.10430176 116.84186035 -79.76977539 116.64770508 C-84.31331821 115.18210336 -86.40340819 113.49062664 -89 109.53125 C-89.51757812 106.65625 -89.51757812 106.65625 -89.53125 103.53125 C-89.53640625 102.396875 -89.5415625 101.2625 -89.546875 100.09375 C-89.52367187 98.3303125 -89.52367187 98.3303125 -89.5 96.53125 C-89.51546875 95.355625 -89.5309375 94.18 -89.546875 92.96875 C-89.54171875 91.834375 -89.5365625 90.7 -89.53125 89.53125 C-89.52673828 88.5 -89.52222656 87.46875 -89.51757812 86.40625 C-88.85945004 82.75053473 -87.62424949 81.13180933 -85 78.53125 C-82.66577148 77.32104492 -82.66577148 77.32104492 -80.12109375 76.51171875 C-79.20005859 76.21201172 -78.27902344 75.91230469 -77.33007812 75.60351562 C-76.37552734 75.31154297 -75.42097656 75.01957031 -74.4375 74.71875 C-72.99987305 74.25178711 -72.99987305 74.25178711 -71.53320312 73.77539062 C-64.49498626 71.53125 -64.49498626 71.53125 -61 71.53125 C-59.99014112 68.51638005 -59.69045788 66.34150083 -60.83886719 63.33544922 C-62.11983381 60.83782152 -63.47224631 58.40006437 -64.875 55.96875 C-65.81565456 54.3040221 -66.75074962 52.63613797 -67.6796875 50.96484375 C-68.09976074 50.23322021 -68.51983398 49.50159668 -68.95263672 48.74780273 C-70.55362262 45.35960903 -71.30962796 42.6736704 -70.3203125 39.0234375 C-67.7498332 34.1714677 -63.78825461 30.45349432 -60 26.53125 C-59.32195312 25.80421875 -58.64390625 25.0771875 -57.9453125 24.328125 C-57.30335938 23.69390625 -56.66140625 23.0596875 -56 22.40625 C-55.443125 21.84679687 -54.88625 21.28734375 -54.3125 20.7109375 C-50.55266102 18.79291153 -47.12374115 18.83349898 -43 19.53125 C-39.57452757 20.9017164 -36.47326553 22.70033232 -33.3125 24.59375 C-27.27892792 28.42244309 -27.27892792 28.42244309 -20.41796875 29.33984375 C-19.62003906 29.07300781 -18.82210937 28.80617188 -18 28.53125 C-17.773125 27.355625 -17.54625 26.18 -17.3125 24.96875 C-16.30033496 20.49241448 -15.05506191 16.09803324 -13.6875 11.71875 C-13.49905518 11.07284912 -13.31061035 10.42694824 -13.11645508 9.76147461 C-10.89526798 2.87552558 -7.18640562 0.03144052 0 0 Z M3 17.53125 C2.79955078 18.20704102 2.59910156 18.88283203 2.39257812 19.57910156 C1.45998117 22.65709445 0.48073807 25.71827325 -0.5 28.78125 C-0.97179687 30.37646484 -0.97179687 30.37646484 -1.453125 32.00390625 C-3.97039169 39.70093325 -3.97039169 39.70093325 -6.94116211 42.09667969 C-8.94017825 43.09699446 -10.87797613 43.83895474 -13 44.53125 C-14.175625 45.10875 -15.35125 45.68625 -16.5625 46.28125 C-20.94988894 47.87666416 -24.6304998 48.51759031 -29.07739258 46.66650391 C-31.29760587 45.48968746 -33.46509949 44.25286046 -35.625 42.96875 C-40.91057061 39.60326207 -40.91057061 39.60326207 -46.8984375 38.62890625 C-49.16362773 39.44770045 -49.16362773 39.44770045 -51 41.53125 C-50.72832689 47.49929471 -47.77779676 51.89529712 -44.79492188 56.87695312 C-42.29582025 61.27410661 -41.40634276 64.35129959 -42 69.53125 C-43.50866038 74.99200894 -45.46389596 81.34386027 -49.875 85.1484375 C-52.22393083 86.2250308 -54.49820606 86.87601825 -57 87.53125 C-58.30777503 87.96342292 -59.61224959 88.40565535 -60.9140625 88.85546875 C-64.59568989 90.12608818 -68.29219061 91.33927966 -72 92.53125 C-72 95.17125 -72 97.81125 -72 100.53125 C-71.32420898 100.73169922 -70.64841797 100.93214844 -69.95214844 101.13867188 C-66.87415555 102.07126883 -63.81297675 103.05051193 -60.75 104.03125 C-59.15478516 104.50304687 -59.15478516 104.50304687 -57.52734375 104.984375 C-49.83031675 107.50164169 -49.83031675 107.50164169 -47.43457031 110.47241211 C-46.43425554 112.47142825 -45.69229526 114.40922613 -45 116.53125 C-44.4225 117.706875 -43.845 118.8825 -43.25 120.09375 C-41.65458584 124.48113894 -41.01365969 128.1617498 -42.86474609 132.60864258 C-44.04156254 134.82885587 -45.27838954 136.99634949 -46.5625 139.15625 C-49.92798793 144.44182061 -49.92798793 144.44182061 -50.90234375 150.4296875 C-50.08354955 152.69487773 -50.08354955 152.69487773 -48 154.53125 C-42.03195529 154.25957689 -37.63595288 151.30904676 -32.65429688 148.32617188 C-28.25714339 145.82707025 -25.17995041 144.93759276 -20 145.53125 C-14.53924106 147.03991038 -8.18738973 148.99514596 -4.3828125 153.40625 C-3.3062192 155.75518083 -2.65523175 158.02945606 -2 160.53125 C-1.56782708 161.83902503 -1.12559465 163.14349959 -0.67578125 164.4453125 C0.59483818 168.12693989 1.80802966 171.82344061 3 175.53125 C5.64 175.53125 8.28 175.53125 11 175.53125 C11.20044922 174.85545898 11.40089844 174.17966797 11.60742188 173.48339844 C12.54001883 170.40540555 13.51926193 167.34422675 14.5 164.28125 C14.97179687 162.68603516 14.97179687 162.68603516 15.453125 161.05859375 C17.97039169 153.36156675 17.97039169 153.36156675 20.94116211 150.96582031 C22.94017825 149.96550554 24.87797613 149.22354526 27 148.53125 C28.175625 147.95375 29.35125 147.37625 30.5625 146.78125 C34.94988894 145.18583584 38.6304998 144.54490969 43.07739258 146.39599609 C45.29760587 147.57281254 47.46509949 148.80963954 49.625 150.09375 C54.91057061 153.45923793 54.91057061 153.45923793 60.8984375 154.43359375 C63.16362773 153.61479955 63.16362773 153.61479955 65 151.53125 C64.72832689 145.56320529 61.77779676 141.16720288 58.79492188 136.18554688 C56.29582025 131.78839339 55.40634276 128.71120041 56 123.53125 C57.50866038 118.07049106 59.46389596 111.71863973 63.875 107.9140625 C66.22393083 106.8374692 68.49820606 106.18648175 71 105.53125 C72.30777503 105.09907708 73.61224959 104.65684465 74.9140625 104.20703125 C78.59568989 102.93641182 82.29219061 101.72322034 86 100.53125 C86 97.89125 86 95.25125 86 92.53125 C85.32420898 92.33080078 84.64841797 92.13035156 83.95214844 91.92382812 C80.87415555 90.99123117 77.81297675 90.01198807 74.75 89.03125 C73.15478516 88.55945313 73.15478516 88.55945313 71.52734375 88.078125 C63.83031675 85.56085831 63.83031675 85.56085831 61.43457031 82.59008789 C60.43425554 80.59107175 59.69229526 78.65327387 59 76.53125 C58.4225 75.355625 57.845 74.18 57.25 72.96875 C55.65458584 68.58136106 55.01365969 64.9007502 56.86474609 60.45385742 C58.04156254 58.23364413 59.27838954 56.06615051 60.5625 53.90625 C63.92798793 48.62067939 63.92798793 48.62067939 64.90234375 42.6328125 C64.08354955 40.36762227 64.08354955 40.36762227 62 38.53125 C56.03195529 38.80292311 51.63595288 41.75345324 46.65429688 44.73632812 C42.25714339 47.23542975 39.17995041 48.12490724 34 47.53125 C28.53924106 46.02258962 22.18738973 44.06735404 18.3828125 39.65625 C17.3062192 37.30731917 16.65523175 35.03304394 16 32.53125 C15.56782708 31.22347497 15.12559465 29.91900041 14.67578125 28.6171875 C13.40516182 24.93556011 12.19197034 21.23905939 11 17.53125 C8.36 17.53125 5.72 17.53125 3 17.53125 Z " fill="#607DA3" transform="translate(337,15.46875)"/>
<path d="M0 0 C1.62711914 -0.04253906 1.62711914 -0.04253906 3.28710938 -0.0859375 C11.1608034 -0.10529508 11.1608034 -0.10529508 15.1640625 2.58203125 C17.99611236 6.93499678 19.15137516 11.4589512 20.55859375 16.41796875 C21.80177661 19.69042037 21.80177661 19.69042037 24.8203125 21.10546875 C28.97662577 21.61123699 30.84211022 20.6010509 34.5 18.625 C39.29189243 16.05317807 42.58737097 14.8717065 48.0625 15.5 C50.21484375 16.75 50.21484375 16.75 52 18.5 C52.99 19.44939453 52.99 19.44939453 54 20.41796875 C54.680625 21.10503906 55.36125 21.79210937 56.0625 22.5 C57.17625 23.57701172 57.17625 23.57701172 58.3125 24.67578125 C64.95425627 31.16335389 64.95425627 31.16335389 65.3203125 35.68359375 C64.94951948 41.172454 62.60061128 45.22890953 60.1796875 50.09765625 C58.78674378 53.45129959 58.78674378 53.45129959 59.625 56.86328125 C60.77522261 59.59181377 60.77522261 59.59181377 62.9453125 60.3828125 C63.68523437 60.46273437 64.42515625 60.54265625 65.1875 60.625 C69.94786807 61.38635128 74.04037955 62.78965025 78.0625 65.5 C81.16163661 70.14870491 80.47107763 74.90545772 80.5 80.375 C80.53287109 81.46425781 80.56574219 82.55351562 80.59960938 83.67578125 C80.65307241 91.61747168 80.65307241 91.61747168 77.984375 95.60546875 C73.62767742 98.43033282 69.10317372 99.58898159 64.14453125 100.99609375 C60.87207963 102.23927661 60.87207963 102.23927661 59.45703125 105.2578125 C58.95126301 109.41412577 59.9614491 111.27961022 61.9375 114.9375 C64.50932193 119.72939243 65.6907935 123.02487097 65.0625 128.5 C63.8125 130.65234375 63.8125 130.65234375 62.0625 132.4375 C61.42957031 133.0975 60.79664063 133.7575 60.14453125 134.4375 C59.45746094 135.118125 58.77039063 135.79875 58.0625 136.5 C57.34449219 137.2425 56.62648438 137.985 55.88671875 138.75 C49.39928717 145.39161185 49.39928717 145.39161185 44.8828125 145.7578125 C39.36875471 145.38569817 35.26821454 143.0301658 30.3671875 140.6171875 C27.20450705 139.28445857 27.20450705 139.28445857 24.32421875 139.82421875 C20.97438178 142.30622231 20.18418537 145.6015491 19 149.4375 C18.54214336 150.8880206 18.07243346 152.33486329 17.58984375 153.77734375 C17.29194946 154.74015259 17.29194946 154.74015259 16.98803711 155.72241211 C15.72439558 158.14936383 14.42821814 159.13431206 12.0625 160.5 C8.10716983 161.1443004 4.12732233 161.00947856 0.125 161 C-0.95974609 161.02835938 -2.04449219 161.05671875 -3.16210938 161.0859375 C-11.0358034 161.10529508 -11.0358034 161.10529508 -15.0390625 158.41796875 C-17.87111236 154.06500322 -19.02637516 149.5410488 -20.43359375 144.58203125 C-21.67677661 141.30957963 -21.67677661 141.30957963 -24.6953125 139.89453125 C-28.85162577 139.38876301 -30.71711022 140.3989491 -34.375 142.375 C-39.16689243 144.94682193 -42.46237097 146.1282935 -47.9375 145.5 C-50.08984375 144.25 -50.08984375 144.25 -51.875 142.5 C-52.535 141.86707031 -53.195 141.23414063 -53.875 140.58203125 C-54.555625 139.89496094 -55.23625 139.20789063 -55.9375 138.5 C-56.68 137.78199219 -57.4225 137.06398438 -58.1875 136.32421875 C-64.82911185 129.83678717 -64.82911185 129.83678717 -65.1953125 125.3203125 C-64.82319817 119.80625471 -62.4676658 115.70571454 -60.0546875 110.8046875 C-58.72195857 107.64200705 -58.72195857 107.64200705 -59.26171875 104.76171875 C-61.74372231 101.41188178 -65.0390491 100.62168537 -68.875 99.4375 C-70.3255206 98.97964336 -71.77236329 98.50993346 -73.21484375 98.02734375 C-74.17765259 97.72944946 -74.17765259 97.72944946 -75.15991211 97.42553711 C-77.58686383 96.16189558 -78.57181206 94.86571814 -79.9375 92.5 C-80.5818004 88.54466983 -80.44697856 84.56482233 -80.4375 80.5625 C-80.46585937 79.47775391 -80.49421875 78.39300781 -80.5234375 77.27539062 C-80.54279508 69.4016966 -80.54279508 69.4016966 -77.85546875 65.3984375 C-73.50250322 62.56638764 -68.9785488 61.41112484 -64.01953125 60.00390625 C-60.74707963 58.76072339 -60.74707963 58.76072339 -59.33203125 55.7421875 C-58.82626301 51.58587423 -59.8364491 49.72038978 -61.8125 46.0625 C-64.38432193 41.27060757 -65.5657935 37.97512903 -64.9375 32.5 C-63.6875 30.34765625 -63.6875 30.34765625 -61.9375 28.5625 C-61.30457031 27.9025 -60.67164063 27.2425 -60.01953125 26.5625 C-59.33246094 25.881875 -58.64539063 25.20125 -57.9375 24.5 C-57.21949219 23.7575 -56.50148438 23.015 -55.76171875 22.25 C-49.27428717 15.60838815 -49.27428717 15.60838815 -44.7578125 15.2421875 C-39.24375471 15.61430183 -35.14321454 17.9698342 -30.2421875 20.3828125 C-27.07950705 21.71554143 -27.07950705 21.71554143 -24.19921875 21.17578125 C-20.84938178 18.69377769 -20.05918537 15.3984509 -18.875 11.5625 C-18.41714336 10.1119794 -17.94743346 8.66513671 -17.46484375 7.22265625 C-17.26624756 6.58078369 -17.06765137 5.93891113 -16.86303711 5.27758789 C-13.44489811 -1.28729473 -6.36866478 -0.01508269 0 0 Z M-2.58203125 17.546875 C-4.38172223 20.14008967 -4.84053517 22.69733142 -5.625 25.75 C-7.59579438 31.17120055 -9.61576558 33.50843843 -14.66333008 35.95996094 C-15.37255615 36.26192383 -16.08178223 36.56388672 -16.8125 36.875 C-17.49658936 37.16665039 -18.18067871 37.45830078 -18.88549805 37.75878906 C-24.43474886 39.83453892 -28.8616363 39.73417237 -34.44921875 37.4921875 C-35.90803873 36.74313451 -37.36636716 35.99312349 -38.82421875 35.2421875 C-41.30094891 34.37235621 -42.50194626 34.63133749 -44.9375 35.5 C-46.0131721 38.23399993 -46.02804999 39.27602596 -44.90625 42.05078125 C-43.93032063 43.88583993 -42.95117242 45.71919051 -41.96875 47.55078125 C-39.58121099 54.37878107 -42.90899468 61.88145669 -45.640625 68.23046875 C-49.81274598 74.16935525 -56.16183383 75.68970751 -62.9375 77.5 C-62.9375 79.48 -62.9375 81.46 -62.9375 83.5 C-61.43509766 83.87125 -61.43509766 83.87125 -59.90234375 84.25 C-53.93247039 85.99945461 -48.66918108 87.64312029 -45.34765625 93.21484375 C-42.12539153 99.8279486 -40.16536389 105.11317523 -41.9375 112.5 C-42.89548236 114.88752967 -44.0182987 117.10168851 -45.1953125 119.38671875 C-46.06514379 121.86344891 -45.80616251 123.06444626 -44.9375 125.5 C-42.20350007 126.5756721 -41.16147404 126.59054999 -38.38671875 125.46875 C-36.55166007 124.49282063 -34.71830949 123.51367242 -32.88671875 122.53125 C-26.05871893 120.14371099 -18.55604331 123.47149468 -12.20703125 126.203125 C-6.26814475 130.37524598 -4.74779249 136.72433383 -2.9375 143.5 C-0.9575 143.5 1.0225 143.5 3.0625 143.5 C3.43375 141.99759766 3.43375 141.99759766 3.8125 140.46484375 C5.56195461 134.49497039 7.20562029 129.23168108 12.77734375 125.91015625 C19.3904486 122.68789153 24.67567523 120.72786389 32.0625 122.5 C34.45002967 123.45798236 36.66418851 124.5807987 38.94921875 125.7578125 C41.42594891 126.62764379 42.62694626 126.36866251 45.0625 125.5 C46.1381721 122.76600007 46.15304999 121.72397404 45.03125 118.94921875 C44.05532063 117.11416007 43.07617242 115.28080949 42.09375 113.44921875 C39.70621099 106.62121893 43.03399468 99.11854331 45.765625 92.76953125 C49.93774598 86.83064475 56.28683383 85.31029249 63.0625 83.5 C63.0625 81.52 63.0625 79.54 63.0625 77.5 C62.06089844 77.2525 61.05929687 77.005 60.02734375 76.75 C54.05747039 75.00054539 48.79418108 73.35687971 45.47265625 67.78515625 C42.25039153 61.1720514 40.29036389 55.88682477 42.0625 48.5 C43.02048236 46.11247033 44.1432987 43.89831149 45.3203125 41.61328125 C46.19014379 39.13655109 45.93116251 37.93555374 45.0625 35.5 C42.32850007 34.4243279 41.28647404 34.40945001 38.51171875 35.53125 C36.67666007 36.50717937 34.84330949 37.48632758 33.01171875 38.46875 C26.31912301 40.80894242 18.51921531 37.70515192 12.31640625 34.79296875 C7.15295604 31.15437898 5.96671697 26.54261181 4.2734375 20.66796875 C3.41664892 17.43061699 3.41664892 17.43061699 1.1015625 16.36328125 C-0.9743549 16.33882884 -0.9743549 16.33882884 -2.58203125 17.546875 Z " fill="#12386A" transform="translate(415.9375,215.5)"/>
<path d="M0 0 C0.85207031 0.48339844 1.70414063 0.96679688 2.58203125 1.46484375 C22.60759293 13.91316588 35.36357223 34.4224447 41 57 C46.50508718 80.91304043 40.73201134 104.44719923 28.2421875 124.875 C15.05083347 144.5086432 -4.06596882 157.46958649 -27 163 C-42.70028418 165.93904974 -59.90931085 165.28521832 -75 160 C-76.03640625 159.649375 -77.0728125 159.29875 -78.140625 158.9375 C-101.48819588 150.13632145 -118.01426408 132.39066308 -128.15869141 109.98681641 C-136.31343344 90.7287518 -137.61499084 65.63306297 -130 46 C-127.65159027 40.48946572 -124.95462244 35.20791795 -122 30 C-121.51660156 29.14792969 -121.03320312 28.29585938 -120.53515625 27.41796875 C-108.08683412 7.39240707 -87.5775553 -5.36357223 -65 -11 C-42.31331267 -16.22276504 -19.78055435 -11.22215638 0 0 Z M-97.25 25.6875 C-106.82090829 35.77196922 -112.33274421 46.67345441 -116 60 C-116.17740723 60.62084473 -116.35481445 61.24168945 -116.53759766 61.88134766 C-120.32006439 79.21199512 -116.43022181 97.48880568 -107.59375 112.546875 C-104.96788244 116.58865154 -102.14928419 120.35168577 -99 124 C-98.42894531 124.66644531 -97.85789062 125.33289063 -97.26953125 126.01953125 C-84.07550695 140.28258097 -66.12855716 146.82126729 -47 148 C-28.7690005 148.37028314 -11.63731919 140.77195575 2 129 C2.66644531 128.42894531 3.33289063 127.85789062 4.01953125 127.26953125 C14.55141115 117.52702302 20.25501443 105.60901006 24 92 C24.17740723 91.37915527 24.35481445 90.75831055 24.53759766 90.11865234 C27.56962325 76.22640414 25.47077757 60.9364243 20 48 C19.61585938 47.0615625 19.23171875 46.123125 18.8359375 45.15625 C15.89024519 38.66370367 11.68357369 33.33382595 7 28 C6.40574219 27.31035156 5.81148438 26.62070312 5.19921875 25.91015625 C-8.17841195 11.44398173 -25.82771975 5.70138116 -45 4 C-65.35312953 4 -82.50864088 11.87598046 -97.25 25.6875 Z " fill="#9992B1" transform="translate(222,260)"/>
<path d="M0 0 C3.83418237 1.58078388 6.26189306 4.01807328 9.16796875 6.9375 C9.64825027 7.41823975 10.1285318 7.89897949 10.62336731 8.39428711 C11.6333707 9.40730151 12.64095273 10.4227352 13.64624023 11.44042969 C15.18746045 12.99995998 16.73658712 14.5512857 18.28710938 16.1015625 C26.81714453 24.67429784 26.81714453 24.67429784 27.5 29.625 C27.44075922 33.33106991 26.55339362 34.97372 24.05859375 37.6796875 C23.42356934 38.3711084 22.78854492 39.0625293 22.13427734 39.77490234 C18.33157265 43.73942426 14.46728331 47.63612095 10.5625 51.5 C9.73556641 52.32242188 8.90863281 53.14484375 8.05664062 53.9921875 C6.04005041 55.99712113 4.02114764 57.99966253 2 60 C-1.63303084 58.30413874 -3.94549046 56.26199512 -6.75 53.375 C-7.94882812 52.14910156 -7.94882812 52.14910156 -9.171875 50.8984375 C-9.77515625 50.27195313 -10.3784375 49.64546875 -11 49 C-9.27845212 45.23511958 -7.00765886 42.84936103 -4 40 C-11.57321304 38.95021636 -18.76705519 39.06274237 -26.375 39.6875 C-28.08030884 39.82514771 -28.08030884 39.82514771 -29.82006836 39.96557617 C-40.07636489 40.87272283 -50.00918504 42.53147757 -60 45 C-60.71381836 45.17370117 -61.42763672 45.34740234 -62.16308594 45.52636719 C-99.37477444 54.84220406 -136.19934763 77.63365042 -160 108 C-164.38894929 104.73279209 -168.75259665 101.45101522 -173 98 C-172.4234559 94.59986814 -171.39002339 93.07329515 -168.875 90.75 C-166.27501963 88.27181097 -163.8776631 85.74626244 -161.5625 83 C-158.00951298 78.90820836 -154.17561892 75.4453835 -150 72 C-149.25049072 71.36602295 -149.25049072 71.36602295 -148.48583984 70.71923828 C-133.72900977 58.26070969 -117.6001806 47.96735627 -100 40 C-98.99984863 39.54633057 -98.99984863 39.54633057 -97.97949219 39.08349609 C-72.27525511 27.60292332 -45.4727807 22.24910862 -17.4375 21.4375 C-16.03319297 21.39420824 -14.62889594 21.35059096 -13.22460938 21.30664062 C-9.81649049 21.20123489 -6.4083068 21.09911018 -3 21 C-5.64 18.36 -8.28 15.72 -11 13 C-9.07859132 9.15718264 -7.4073184 7.19568073 -4.375 4.25 C-3.14910156 3.05117187 -3.14910156 3.05117187 -1.8984375 1.828125 C-1.27195313 1.22484375 -0.64546875 0.6215625 0 0 Z " fill="#000000" transform="translate(189,106)"/>
<path d="M0 0 C1.64044004 0.33813813 3.28106402 0.67538519 4.921875 1.01171875 C8.90844557 1.83088483 12.89233101 2.66207955 16.875 3.5 C18.06939913 7.51440218 17.45605242 10.17579034 16.4375 14.25 C16.15003906 15.42046875 15.86257813 16.5909375 15.56640625 17.796875 C15.22416016 19.13492188 15.22416016 19.13492188 14.875 20.5 C8.53618686 19.87802877 2.20405858 19.21457113 -4.125 18.5 C-3.82207031 19.16902344 -3.51914062 19.83804688 -3.20703125 20.52734375 C-0.56064208 26.593682 1.67069739 32.66178125 3.5625 39 C3.86546997 39.99374634 3.86546997 39.99374634 4.17456055 41.00756836 C7.50267169 52.4781352 8.25199519 63.81836472 8.1875 75.6875 C8.18376877 76.78390808 8.18376877 76.78390808 8.17996216 77.90246582 C8.12315187 88.69140412 7.8341473 99.05418503 4.875 109.5 C4.55233154 110.67949219 4.55233154 110.67949219 4.22314453 111.8828125 C-0.76304483 129.59343214 -8.36095807 147.93134798 -21.125 161.5 C-25.0770518 160.91827275 -27.34595053 158.94842259 -30.375 156.4375 C-31.26703125 155.70402344 -32.1590625 154.97054687 -33.078125 154.21484375 C-33.75359375 153.64894531 -34.4290625 153.08304688 -35.125 152.5 C-33.80748314 149.77345105 -32.36622317 147.21390501 -30.734375 144.6640625 C-12.93433273 116.48612429 -4.61860701 84.20664862 -11.8125 50.9375 C-13.55083348 43.54356357 -16.07758694 36.45659457 -19.125 29.5 C-20.44109006 33.27131688 -21.50758569 36.95081006 -22.25 40.875 C-22.41757812 41.74898437 -22.58515625 42.62296875 -22.7578125 43.5234375 C-22.87898438 44.17570312 -23.00015625 44.82796875 -23.125 45.5 C-26.99686448 46.94715727 -29.9482328 46.0441918 -33.875 45.0625 C-35.63070313 44.63130859 -35.63070313 44.63130859 -37.421875 44.19140625 C-38.31390625 43.96324219 -39.2059375 43.73507813 -40.125 43.5 C-39.56453311 35.63485878 -38.20162643 27.98314815 -36.65087891 20.2578125 C-36.24827988 18.24138474 -35.86020664 16.22249224 -35.47265625 14.203125 C-35.08787109 12.26953125 -35.08787109 12.26953125 -34.6953125 10.296875 C-34.46602051 9.13510742 -34.23672852 7.97333984 -34.00048828 6.77636719 C-33.08874478 3.36432095 -31.89264794 0.55367259 -30.125 -2.5 C-21.76536423 -6.67981788 -8.64233799 -1.82100172 0 0 Z " fill="#000000" transform="translate(472.125,35.5)"/>
<path d="M0 0 C8.80288754 6.34043826 15.4186507 14.72648904 17.58203125 25.4921875 C18.92007691 37.90936834 17.85729499 48.88109459 10.39453125 59.2421875 C3.58210875 67.3274193 -4.72289951 73.55522767 -15.48876953 74.71533203 C-28.40007937 75.61089799 -39.16843729 74.04490094 -49.3515625 65.46484375 C-57.86959925 57.33325857 -62.42046403 48.68416257 -62.88867188 36.85693359 C-63.04371176 24.34263074 -60.22647828 14.71931927 -51.41796875 5.4921875 C-37.63784493 -7.66275112 -16.31305228 -10.17259803 0 0 Z M-42.19140625 21.6484375 C-46.12351302 27.55912028 -46.11660152 33.61334174 -45.41796875 40.4921875 C-43.64454442 47.13691664 -38.97130405 51.66586709 -33.41796875 55.4921875 C-27.41909871 58.43281007 -20.53513345 58.59102538 -14.10546875 56.875 C-7.97664014 54.16969675 -3.17844083 49.08355055 -0.24609375 43.1015625 C1.66008982 37.09528598 1.64641812 29.98927192 -0.91796875 24.1796875 C-4.39834133 18.24695275 -9.85358805 13.56055006 -16.41796875 11.4921875 C-28.14191837 10.06609888 -34.72539236 12.80600765 -42.19140625 21.6484375 Z " fill="#607DA2" transform="translate(366.41796875,77.5078125)"/>
<path d="M0 0 C8.34468007 4.97590182 13.53387008 11.86345977 16.109375 21.2578125 C17.10789012 32.35758522 16.45884702 41.9922991 9.359375 51.0703125 C3.68970122 57.1408723 -3.36319277 60.85433149 -11.66015625 61.59375 C-19.4412515 61.76746925 -26.16911331 61.58646603 -32.890625 57.2578125 C-33.59703125 56.82210937 -34.3034375 56.38640625 -35.03125 55.9375 C-41.93709584 51.25687115 -45.68778524 45.25759899 -47.890625 37.2578125 C-48.88914012 26.15803978 -48.24009702 16.5233259 -41.140625 7.4453125 C-30.84272373 -3.5807232 -13.59449082 -6.52353083 0 0 Z M-29.265625 20.8828125 C-31.46970393 25.46051489 -31.6877889 29.26333661 -30.890625 34.2578125 C-28.56093569 39.09639798 -25.72921048 41.92812319 -20.890625 44.2578125 C-15.89614911 45.0549764 -12.09332739 44.83689143 -7.515625 42.6328125 C-3.93154787 39.39007605 -1.29527259 36.79305354 -0.5078125 31.859375 C-0.25178581 26.17558256 -0.95435568 22.60842595 -4.890625 18.2578125 C-9.24123845 14.32154318 -12.80839506 13.61897331 -18.4921875 13.875 C-23.42586604 14.66246009 -26.02288855 17.29873537 -29.265625 20.8828125 Z " fill="#12376A" transform="translate(431.890625,266.7421875)"/>
</svg>
